<svg width="32" height="32" viewBox="0 0 32 32" fill="none" xmlns="http://www.w3.org/2000/svg">
<path d="M10.6666 24L2.66663 16L10.6666 8L12.5666 9.9L6.43329 16.0333L12.5333 22.1333L10.6666 24ZM21.3333 24L19.4333 22.1L25.5666 15.9667L19.4666 9.86667L21.3333 8L29.3333 16L21.3333 24Z" fill="url(#paint0_linear_37_390)"/>
<path d="M19 13C19.0753 13 19.1496 13.017 19.2174 13.0497C19.2852 13.0824 19.3447 13.1301 19.3915 13.189L19.4285 13.243L20.9285 15.743C20.9777 15.825 21.0023 15.9193 20.9994 16.0148C20.9966 16.1104 20.9664 16.2031 20.9125 16.282L20.8725 16.3335L16.6075 21.1C16.5283 21.1808 16.4338 21.245 16.3295 21.2888C16.2252 21.3325 16.1132 21.3551 16 21.355C15.8 21.355 15.6075 21.285 15.445 21.1465L15.3775 21.0835L11.1275 16.3335C11.0636 16.2622 11.0215 16.1739 11.0063 16.0794C10.991 15.9848 11.0033 15.8878 11.0415 15.8L11.0715 15.7425L12.578 13.2315L12.61 13.1865C12.6329 13.158 12.6589 13.1322 12.6875 13.1095L12.732 13.0775L12.776 13.0525L12.801 13.041L12.831 13.0285L12.8855 13.0125L12.9415 13.0025L13 13H19ZM14.557 14.9715C14.4434 14.9034 14.3073 14.8833 14.1788 14.9154C14.0503 14.9476 13.9398 15.0294 13.8715 15.143L13.5715 15.643L13.5415 15.701C13.5033 15.7892 13.4913 15.8866 13.507 15.9815C13.5227 16.0764 13.5654 16.1648 13.63 16.236L14.63 17.336L14.675 17.38C14.7676 17.4592 14.8859 17.5019 15.0077 17.5C15.1295 17.4982 15.2464 17.452 15.3365 17.37L15.38 17.325C15.4592 17.2324 15.5019 17.1142 15.5001 16.9924C15.4982 16.8706 15.452 16.7536 15.37 16.6635L14.6195 15.8385L14.7285 15.657L14.756 15.6055C14.8063 15.4938 14.8138 15.3675 14.7771 15.2507C14.7404 15.1338 14.6621 15.0345 14.557 14.9715Z" fill="url(#paint1_linear_37_390)"/>
<defs>
<linearGradient id="paint0_linear_37_390" x1="16" y1="8" x2="16" y2="24" gradientUnits="userSpaceOnUse">
<stop stop-color="#F59E0B"/>
<stop offset="1" stop-color="#F43F5E"/>
</linearGradient>
<linearGradient id="paint1_linear_37_390" x1="15.9998" y1="13" x2="15.9998" y2="21.355" gradientUnits="userSpaceOnUse">
<stop stop-color="#F59E0B"/>
<stop offset="1" stop-color="#F43F5E"/>
</linearGradient>
</defs>
</svg>
