<svg width="352" height="128" viewBox="0 0 352 128" fill="none" xmlns="http://www.w3.org/2000/svg">
<path d="M42.6667 96L10.6667 64L42.6667 32L50.2668 39.6L25.7334 64.1333L50.1334 88.5333L42.6667 96ZM85.3334 96L77.7334 88.4L102.267 63.8667L77.8668 39.4667L85.3334 32L117.333 64L85.3334 96Z" fill="#111827"/>
<path d="M76 52C76.3011 52 76.5983 52.068 76.8695 52.1989C77.1406 52.3298 77.3787 52.5202 77.566 52.756L77.714 52.972L83.714 62.972C83.9105 63.2999 84.0089 63.6773 83.9976 64.0594C83.9862 64.4415 83.8656 64.8123 83.65 65.128L83.49 65.334L66.43 84.4C66.1132 84.7232 65.7351 84.9799 65.3179 85.155C64.9006 85.3302 64.4525 85.4203 64 85.42C63.2 85.42 62.43 85.14 61.78 84.586L61.51 84.334L44.51 65.334C44.2543 65.0486 44.0859 64.6958 44.0249 64.3175C43.9639 63.9392 44.0129 63.5513 44.166 63.2L44.286 62.97L50.312 52.926L50.44 52.746C50.5316 52.6321 50.6355 52.5288 50.75 52.438L50.928 52.31L51.104 52.21L51.204 52.164L51.324 52.114L51.542 52.05L51.766 52.01L52 52H76ZM58.228 59.886C57.7733 59.6137 57.2292 59.533 56.7151 59.6617C56.2009 59.7903 55.7589 60.1177 55.486 60.572L54.286 62.572L54.166 62.804C54.0129 63.157 53.9649 63.5466 54.0277 63.9262C54.0905 64.3057 54.2614 64.6591 54.52 64.944L58.52 69.344L58.7 69.52C59.0702 69.8368 59.5434 70.0076 60.0306 70.0002C60.5178 69.9928 60.9855 69.8078 61.346 69.48L61.52 69.3C61.8368 68.9298 62.0076 68.4566 62.0002 67.9694C61.9928 67.4822 61.8079 67.0145 61.48 66.654L58.478 63.354L58.914 62.628L59.024 62.422C59.225 61.9752 59.255 61.4701 59.1082 61.0026C58.9615 60.5352 58.6483 60.1378 58.228 59.886Z" fill="#111827"/>
<path d="M135.168 44.2H150.528V51.88H138.24L138.048 52.264L148.288 70.952C150.379 74.7067 151.424 77.5653 151.424 79.528C151.424 83.8373 149.995 86.9947 147.136 89H130.176V81.576H143.424L143.616 81.192L132.096 60.52C130.432 57.5333 129.6 55.1013 129.6 53.224C129.6 48.7867 131.456 45.7787 135.168 44.2ZM174.957 89L173.613 81.896H163.501L162.157 89H153.453L162.093 44.2H175.341L183.533 89H174.957ZM168.429 52.52L165.933 67.432L164.525 75.048H172.525L171.053 67.432L168.557 52.52H168.429ZM207.228 89L195.26 64.232L194.94 64.36L195.324 71.912V89H187.26V44.2H193.724L205.5 69.928L205.82 69.8L205.116 61.928V44.2H213.18V89H207.228ZM226.554 51.88H216.89V44.2H244.922V51.88H235.258V89H226.554V51.88ZM249.501 49.576V40.936H258.077V43.176C258.077 46.6747 257.799 49.2987 257.245 51.048C256.733 52.7547 255.325 55.208 253.021 58.408L249.373 56.36C251.293 53.0747 252.402 50.8133 252.701 49.576H249.501ZM278.957 89L277.613 81.896H267.501L266.157 89H257.453L266.093 44.2H279.341L287.533 89H278.957ZM272.429 52.52L269.933 67.432L268.525 75.048H276.525L275.053 67.432L272.557 52.52H272.429ZM311.228 89L299.26 64.232L298.94 64.36L299.324 71.912V89H291.26V44.2H297.724L309.5 69.928L309.82 69.8L309.116 61.928V44.2H317.18V89H311.228ZM342.394 89L341.05 81.896H330.938L329.594 89H320.89L329.53 44.2H342.778L350.97 89H342.394ZM335.866 52.52L333.37 67.432L331.962 75.048H339.962L338.49 67.432L335.994 52.52H335.866Z" fill="#111827"/>
</svg>
