<svg width="264" height="96" viewBox="0 0 264 96" fill="none" xmlns="http://www.w3.org/2000/svg">
<path d="M32 72L8 48L32 24L37.7 29.7L19.3 48.1L37.6 66.4L32 72ZM64 72L58.3 66.3L76.7 47.9L58.4 29.6L64 24L88 48L64 72Z" fill="url(#paint0_linear_11_2)"/>
<path d="M57 39C57.2258 39 57.4487 39.051 57.6521 39.1492C57.8555 39.2473 58.034 39.3902 58.1745 39.567L58.2855 39.729L62.7855 47.229C62.9329 47.4749 63.0067 47.7579 62.9982 48.0445C62.9897 48.3311 62.8992 48.6092 62.7375 48.846L62.6175 49.0005L49.8225 63.3C49.5849 63.5424 49.3013 63.7349 48.9884 63.8663C48.6754 63.9976 48.3394 64.0652 48 64.065C47.4 64.065 46.8225 63.855 46.335 63.4395L46.1325 63.2505L33.3825 49.0005C33.1907 48.7865 33.0644 48.5218 33.0187 48.2381C32.9729 47.9544 33.0097 47.6635 33.1245 47.4L33.2145 47.2275L37.734 39.6945L37.83 39.5595C37.8987 39.4741 37.9767 39.3966 38.0625 39.3285L38.196 39.2325L38.328 39.1575L38.403 39.123L38.493 39.0855L38.6565 39.0375L38.8245 39.0075L39 39H57ZM43.671 44.9145C43.33 44.7103 42.9219 44.6498 42.5363 44.7462C42.1507 44.8427 41.8192 45.0883 41.6145 45.429L40.7145 46.929L40.6245 47.103C40.5097 47.3677 40.4737 47.6599 40.5208 47.9446C40.5679 48.2293 40.6961 48.4943 40.89 48.708L43.89 52.008L44.025 52.14C44.3027 52.3776 44.6575 52.5057 45.0229 52.5001C45.3883 52.4946 45.7392 52.3559 46.0095 52.11L46.14 51.975C46.3776 51.6973 46.5057 51.3425 46.5001 50.9771C46.4946 50.6117 46.3559 50.2609 46.11 49.9905L43.8585 47.5155L44.1855 46.971L44.268 46.8165C44.4187 46.4814 44.4412 46.1026 44.3312 45.752C44.2211 45.4014 43.9862 45.1034 43.671 44.9145Z" fill="url(#paint1_linear_11_2)"/>
<path d="M101.376 32.4H112.896V38.16H103.68L103.536 38.448L111.216 52.464C112.784 55.28 113.568 57.424 113.568 58.896C113.568 62.128 112.496 64.496 110.352 66H97.632V60.432H107.568L107.712 60.144L99.072 44.64C97.824 42.4 97.2 40.576 97.2 39.168C97.2 35.84 98.592 33.584 101.376 32.4ZM131.217 66L130.209 60.672H122.625L121.617 66H115.089L121.569 32.4H131.505L137.649 66H131.217ZM126.321 38.64L124.449 49.824L123.393 55.536H129.393L128.289 49.824L126.417 38.64H126.321ZM155.421 66L146.445 47.424L146.205 47.52L146.493 53.184V66H140.445V32.4H145.293L154.125 51.696L154.365 51.6L153.837 45.696V32.4H159.885V66H155.421ZM169.916 38.16H162.668V32.4H183.692V38.16H176.444V66H169.916V38.16ZM187.125 36.432V29.952H193.557V31.632C193.557 34.256 193.349 36.224 192.933 37.536C192.549 38.816 191.493 40.656 189.765 43.056L187.029 41.52C188.469 39.056 189.301 37.36 189.525 36.432H187.125ZM209.217 66L208.209 60.672H200.625L199.617 66H193.089L199.569 32.4H209.505L215.649 66H209.217ZM204.321 38.64L202.449 49.824L201.393 55.536H207.393L206.289 49.824L204.417 38.64H204.321ZM233.421 66L224.445 47.424L224.205 47.52L224.493 53.184V66H218.445V32.4H223.293L232.125 51.696L232.365 51.6L231.837 45.696V32.4H237.885V66H233.421ZM256.796 66L255.788 60.672H248.204L247.196 66H240.668L247.148 32.4H257.084L263.228 66H256.796ZM251.9 38.64L250.028 49.824L248.972 55.536H254.972L253.868 49.824L251.996 38.64H251.9Z" fill="url(#paint2_linear_11_2)"/>
<defs>
<linearGradient id="paint0_linear_11_2" x1="48" y1="24" x2="48" y2="72" gradientUnits="userSpaceOnUse">
<stop stop-color="#F59E0B"/>
<stop offset="1" stop-color="#F43F5E"/>
</linearGradient>
<linearGradient id="paint1_linear_11_2" x1="47.9992" y1="39" x2="47.9992" y2="64.065" gradientUnits="userSpaceOnUse">
<stop stop-color="#F59E0B"/>
<stop offset="1" stop-color="#F43F5E"/>
</linearGradient>
<linearGradient id="paint2_linear_11_2" x1="180" y1="14" x2="180" y2="81" gradientUnits="userSpaceOnUse">
<stop stop-color="#F59E0B"/>
<stop offset="1" stop-color="#F43F5E"/>
</linearGradient>
</defs>
</svg>
