<svg width="400" height="400" viewBox="0 0 400 400" fill="none" xmlns="http://www.w3.org/2000/svg">
<rect width="400" height="400" fill="#27272A"/>
<path d="M178.667 168L146.667 136L178.667 104L186.267 111.6L161.733 136.133L186.133 160.533L178.667 168ZM221.333 168L213.733 160.4L238.267 135.867L213.867 111.467L221.333 104L253.333 136L221.333 168Z" fill="white"/>
<path d="M212 124C212.301 124 212.598 124.068 212.87 124.199C213.141 124.33 213.379 124.52 213.566 124.756L213.714 124.972L219.714 134.972C219.911 135.3 220.009 135.677 219.998 136.059C219.986 136.441 219.866 136.812 219.65 137.128L219.49 137.334L202.43 156.4C202.113 156.723 201.735 156.98 201.318 157.155C200.901 157.33 200.453 157.42 200 157.42C199.2 157.42 198.43 157.14 197.78 156.586L197.51 156.334L180.51 137.334C180.254 137.049 180.086 136.696 180.025 136.317C179.964 135.939 180.013 135.551 180.166 135.2L180.286 134.97L186.312 124.926L186.44 124.746C186.532 124.632 186.636 124.529 186.75 124.438L186.928 124.31L187.104 124.21L187.204 124.164L187.324 124.114L187.542 124.05L187.766 124.01L188 124H212ZM194.228 131.886C193.773 131.614 193.229 131.533 192.715 131.662C192.201 131.79 191.759 132.118 191.486 132.572L190.286 134.572L190.166 134.804C190.013 135.157 189.965 135.547 190.028 135.926C190.091 136.306 190.262 136.659 190.52 136.944L194.52 141.344L194.7 141.52C195.07 141.837 195.543 142.008 196.031 142C196.518 141.993 196.986 141.808 197.346 141.48L197.52 141.3C197.837 140.93 198.008 140.457 198 139.969C197.993 139.482 197.808 139.014 197.48 138.654L194.478 135.354L194.914 134.628L195.024 134.422C195.225 133.975 195.255 133.47 195.108 133.003C194.962 132.535 194.648 132.138 194.228 131.886Z" fill="white"/>
<path d="M110.096 239V209.909H121.005C123.24 209.909 125.115 210.326 126.63 211.159C128.155 211.992 129.305 213.138 130.082 214.597C130.868 216.045 131.261 217.693 131.261 219.54C131.261 221.405 130.868 223.062 130.082 224.511C129.296 225.96 128.136 227.101 126.602 227.935C125.067 228.759 123.178 229.17 120.934 229.17H113.704V224.838H120.224C121.531 224.838 122.601 224.611 123.434 224.156C124.267 223.702 124.883 223.077 125.281 222.281C125.688 221.486 125.891 220.572 125.891 219.54C125.891 218.508 125.688 217.598 125.281 216.812C124.883 216.027 124.263 215.416 123.42 214.98C122.586 214.535 121.512 214.312 120.195 214.312H115.366V239H110.096ZM135.838 239V209.909H146.747C148.982 209.909 150.857 210.297 152.372 211.074C153.897 211.85 155.047 212.939 155.824 214.341C156.61 215.733 157.003 217.357 157.003 219.213C157.003 221.079 156.605 222.698 155.81 224.071C155.024 225.435 153.864 226.491 152.33 227.239C150.795 227.977 148.911 228.347 146.676 228.347H138.906V223.972H145.966C147.273 223.972 148.343 223.792 149.176 223.432C150.009 223.062 150.625 222.527 151.023 221.827C151.43 221.116 151.634 220.245 151.634 219.213C151.634 218.181 151.43 217.3 151.023 216.571C150.616 215.832 149.995 215.274 149.162 214.895C148.329 214.507 147.254 214.312 145.938 214.312H141.108V239H135.838ZM150.866 225.818L158.068 239H152.188L145.114 225.818H150.866ZM187.848 224.455C187.848 227.589 187.261 230.274 186.087 232.509C184.922 234.734 183.331 236.438 181.314 237.622C179.306 238.806 177.029 239.398 174.482 239.398C171.934 239.398 169.652 238.806 167.635 237.622C165.627 236.429 164.036 234.72 162.862 232.494C161.697 230.259 161.115 227.58 161.115 224.455C161.115 221.32 161.697 218.64 162.862 216.415C164.036 214.18 165.627 212.471 167.635 211.287C169.652 210.103 171.934 209.511 174.482 209.511C177.029 209.511 179.306 210.103 181.314 211.287C183.331 212.471 184.922 214.18 186.087 216.415C187.261 218.64 187.848 221.32 187.848 224.455ZM182.55 224.455C182.55 222.248 182.204 220.387 181.513 218.872C180.831 217.348 179.884 216.197 178.672 215.42C177.46 214.634 176.063 214.241 174.482 214.241C172.9 214.241 171.503 214.634 170.291 215.42C169.079 216.197 168.127 217.348 167.436 218.872C166.754 220.387 166.413 222.248 166.413 224.455C166.413 226.661 166.754 228.527 167.436 230.051C168.127 231.566 169.079 232.717 170.291 233.503C171.503 234.279 172.9 234.668 174.482 234.668C176.063 234.668 177.46 234.279 178.672 233.503C179.884 232.717 180.831 231.566 181.513 230.051C182.204 228.527 182.55 226.661 182.55 224.455ZM204.308 209.909H209.535V230.364C209.525 232.239 209.128 233.853 208.342 235.207C207.556 236.552 206.457 237.589 205.046 238.318C203.645 239.038 202.011 239.398 200.146 239.398C198.441 239.398 196.907 239.095 195.543 238.489C194.189 237.873 193.114 236.964 192.319 235.761C191.523 234.559 191.126 233.062 191.126 231.273H196.367C196.377 232.059 196.547 232.736 196.879 233.304C197.219 233.872 197.688 234.308 198.285 234.611C198.881 234.914 199.568 235.065 200.344 235.065C201.187 235.065 201.902 234.89 202.489 234.54C203.076 234.18 203.522 233.65 203.825 232.949C204.137 232.248 204.298 231.386 204.308 230.364V209.909ZM215.252 239V209.909H234.173V214.327H220.522V222.224H233.192V226.642H220.522V234.582H234.286V239H215.252ZM238.271 214.327V209.909H261.481V214.327H252.489V239H247.262V214.327H238.271ZM290.661 224.455C290.661 227.589 290.073 230.274 288.899 232.509C287.734 234.734 286.143 236.438 284.126 237.622C282.119 238.806 279.841 239.398 277.294 239.398C274.747 239.398 272.464 238.806 270.447 237.622C268.44 236.429 266.849 234.72 265.675 232.494C264.51 230.259 263.928 227.58 263.928 224.455C263.928 221.32 264.51 218.64 265.675 216.415C266.849 214.18 268.44 212.471 270.447 211.287C272.464 210.103 274.747 209.511 277.294 209.511C279.841 209.511 282.119 210.103 284.126 211.287C286.143 212.471 287.734 214.18 288.899 216.415C290.073 218.64 290.661 221.32 290.661 224.455ZM285.362 224.455C285.362 222.248 285.017 220.387 284.325 218.872C283.643 217.348 282.696 216.197 281.484 215.42C280.272 214.634 278.875 214.241 277.294 214.241C275.713 214.241 274.316 214.634 273.104 215.42C271.892 216.197 270.94 217.348 270.249 218.872C269.567 220.387 269.226 222.248 269.226 224.455C269.226 226.661 269.567 228.527 270.249 230.051C270.94 231.566 271.892 232.717 273.104 233.503C274.316 234.279 275.713 234.668 277.294 234.668C278.875 234.668 280.272 234.279 281.484 233.503C282.696 232.717 283.643 231.566 284.325 230.051C285.017 228.527 285.362 226.661 285.362 224.455ZM37.0099 287V257.909H55.9304V262.327H42.2798V270.224H54.9503V274.642H42.2798V282.582H56.044V287H37.0099ZM61.3068 257.909H67.7557L76.392 278.989H76.733L85.3693 257.909H91.8182V287H86.7614V267.014H86.4915L78.4517 286.915H74.6733L66.6335 266.972H66.3636V287H61.3068V257.909ZM111.214 287H105.589L115.831 257.909H122.337L132.592 287H126.967L119.197 263.875H118.97L111.214 287ZM111.399 275.594H126.74V279.827H111.399V275.594ZM160.33 257.909V287H155.643L141.935 267.185H141.694V287H136.424V257.909H141.14L154.833 277.739H155.089V257.909H160.33ZM175.93 287H166.072V257.909H176.129C179.018 257.909 181.499 258.491 183.572 259.656C185.656 260.812 187.256 262.473 188.374 264.642C189.491 266.811 190.05 269.405 190.05 272.426C190.05 275.456 189.486 278.061 188.359 280.239C187.242 282.417 185.627 284.088 183.516 285.253C181.413 286.418 178.885 287 175.93 287ZM171.342 282.44H175.675C177.701 282.44 179.392 282.071 180.746 281.332C182.1 280.584 183.118 279.472 183.8 277.994C184.482 276.508 184.822 274.652 184.822 272.426C184.822 270.201 184.482 268.354 183.8 266.886C183.118 265.409 182.109 264.306 180.774 263.577C179.448 262.838 177.801 262.469 175.831 262.469H171.342V282.44ZM197.23 287H191.605L201.847 257.909H208.352L218.608 287H212.983L205.213 263.875H204.986L197.23 287ZM197.415 275.594H212.756V279.827H197.415V275.594ZM222.44 257.909H228.888L237.525 278.989H237.866L246.502 257.909H252.951V287H247.894V267.014H247.624L239.585 286.915H235.806L227.766 266.972H227.496V287H222.44V257.909ZM258.69 287V257.909H277.61V262.327H263.96V270.224H276.63V274.642H263.96V282.582H277.724V287H258.69ZM306.893 257.909V287H302.205L288.498 267.185H288.256V287H282.987V257.909H287.702L301.396 277.739H301.651V257.909H306.893ZM311.357 262.327V257.909H334.567V262.327H325.575V287H320.348V262.327H311.357ZM363.746 272.455C363.746 275.589 363.159 278.274 361.985 280.509C360.82 282.734 359.229 284.438 357.212 285.622C355.205 286.806 352.927 287.398 350.38 287.398C347.833 287.398 345.55 286.806 343.533 285.622C341.526 284.429 339.935 282.72 338.761 280.494C337.596 278.259 337.013 275.58 337.013 272.455C337.013 269.32 337.596 266.64 338.761 264.415C339.935 262.18 341.526 260.471 343.533 259.287C345.55 258.103 347.833 257.511 350.38 257.511C352.927 257.511 355.205 258.103 357.212 259.287C359.229 260.471 360.82 262.18 361.985 264.415C363.159 266.64 363.746 269.32 363.746 272.455ZM358.448 272.455C358.448 270.248 358.103 268.387 357.411 266.872C356.729 265.348 355.782 264.197 354.57 263.42C353.358 262.634 351.961 262.241 350.38 262.241C348.799 262.241 347.402 262.634 346.19 263.42C344.978 264.197 344.026 265.348 343.335 266.872C342.653 268.387 342.312 270.248 342.312 272.455C342.312 274.661 342.653 276.527 343.335 278.051C344.026 279.566 344.978 280.717 346.19 281.503C347.402 282.279 348.799 282.668 350.38 282.668C351.961 282.668 353.358 282.279 354.57 281.503C355.782 280.717 356.729 279.566 357.411 278.051C358.103 276.527 358.448 274.661 358.448 272.455Z" fill="white"/>
</svg>
